<svg xmlns="http://www.w3.org/2000/svg" width="18.998" height="18.998" viewBox="0 0 18.998 18.998">
  <path id="instagram" d="M9.5,4.625A4.874,4.874,0,1,0,14.37,9.5,4.867,4.867,0,0,0,9.5,4.625Zm0,8.042A3.168,3.168,0,1,1,12.664,9.5,3.174,3.174,0,0,1,9.5,12.667ZM14.57,3.29a1.137,1.137,0,1,0,.436.086A1.137,1.137,0,0,0,14.57,3.29ZM19,9.5c0-1.312.012-2.612-.062-3.921A5.649,5.649,0,0,0,17.4,1.6,5.642,5.642,0,0,0,13.42.062C12.108-.011,10.808,0,9.5,0S6.887-.011,5.578.062A5.649,5.649,0,0,0,1.6,1.6,5.643,5.643,0,0,0,.062,5.578C-.011,6.89,0,8.19,0,9.5s-.012,2.612.062,3.921A5.649,5.649,0,0,0,1.6,17.4a5.643,5.643,0,0,0,3.983,1.533C6.89,19.009,8.19,19,9.5,19s2.612.012,3.921-.062A5.649,5.649,0,0,0,17.4,17.4a5.643,5.643,0,0,0,1.533-3.983C19.011,12.111,19,10.811,19,9.5Zm-2.091,5.6A3.241,3.241,0,0,1,15.1,16.909c-1.25.5-4.218.385-5.6.385s-4.356.112-5.606-.383a3.242,3.242,0,0,1-1.806-1.806C1.59,13.853,1.7,10.885,1.7,9.5s-.112-4.356.383-5.606A3.02,3.02,0,0,1,2.8,2.8a3.072,3.072,0,0,1,1.088-.718C5.141,1.593,8.111,1.7,9.5,1.7s4.356-.112,5.606.383a3.02,3.02,0,0,1,1.088.718,3.04,3.04,0,0,1,.718,1.088c.494,1.25.383,4.22.383,5.606S17.4,13.853,16.906,15.1Z" fill="#fff"/>
</svg>
