<svg xmlns="http://www.w3.org/2000/svg" width="21.923" height="19" viewBox="0 0 21.923 19">
  <path id="twitter" d="M23.923,5.257A8.569,8.569,0,0,1,21.336,6a4.738,4.738,0,0,0,1.976-2.642,8.539,8.539,0,0,1-2.851,1.158,4.494,4.494,0,0,0-1.494-1.122A4.243,4.243,0,0,0,17.178,3a4.649,4.649,0,0,0-4.492,4.795,5.858,5.858,0,0,0,.111,1.1A12.523,12.523,0,0,1,3.533,3.877,5.005,5.005,0,0,0,2.922,6.3a4.887,4.887,0,0,0,2,3.994,4.32,4.32,0,0,1-2.031-.61V9.74a4.727,4.727,0,0,0,3.6,4.705,4.48,4.48,0,0,1-1.183.163,5.6,5.6,0,0,1-.848-.073,4.548,4.548,0,0,0,4.2,3.325,8.653,8.653,0,0,1-5.578,2.049A8.607,8.607,0,0,1,2,19.85,12.15,12.15,0,0,0,8.9,22c8.262,0,12.783-7.3,12.783-13.64,0-.208,0-.416-.013-.624A10.054,10.054,0,0,0,23.923,5.257Z" transform="translate(-2 -3)" fill="#fff"/>
</svg>
